<!--?xml version="1.0" encoding="utf-8"?-->
<!-- Generator: Adobe Illustrator 18.1.1, SVG Export Plug-In . SVG Version: 6.00 Build 0)  -->

<svg version="1.1" id="_x31_0" xmlns="http://www.w3.org/2000/svg" xmlns:xlink="http://www.w3.org/1999/xlink" x="0px" y="0px" viewBox="0 0 512 512" style="width: 48px; height: 48px; opacity: 1;" xml:space="preserve">
<style type="text/css">
	.st0{fill:#374149;}
</style>
<g>
	<path class="st0" d="M484.141,176.909H350.263c-12.047,0-22.723-7.758-26.446-19.215L282.446,30.37
		c-8.324-25.617-44.566-25.617-52.89,0l-41.371,127.324c-3.722,11.458-14.398,19.215-26.446,19.215H27.86
		c-26.938,0-38.137,34.469-16.344,50.301l108.309,78.695c9.746,7.078,13.824,19.629,10.102,31.086L88.555,464.319
		c-8.324,25.617,20.996,46.922,42.789,31.086l108.313-78.691c9.746-7.078,22.942-7.078,32.687,0l108.309,78.691
		c21.793,15.836,51.114-5.469,42.789-31.086L382.074,336.99c-3.726-11.457,0.352-24.007,10.098-31.086l108.313-78.695
		C522.278,211.378,511.074,176.909,484.141,176.909z" style="fill: rgb(75, 75, 75);"></path>
</g>
</svg>
